<?xml version="1.0" encoding="utf-8"?>
<svg width="1920" height="1080" xmlns="http://www.w3.org/2000/svg">
  <path d="M463,1189L215,1182L619,1195Z" fill="#e19af4" stroke="#e19af4" stroke-width="1.51"/>
  <path d="M1641,1185L1496,1194L1749,1195Z" fill="#e19bf4" stroke="#e19bf4" stroke-width="1.51"/>
  <path d="M1870,1170L1749,1195L1928,1164Z" fill="#954bed" stroke="#954bed" stroke-width="1.51"/>
  <path d="M1998,946L1965,1006L2001,1032Z" fill="#c389f3" stroke="#c389f3" stroke-width="1.51"/>
  <path d="M1928,1164L1749,1195L2007,1160Z" fill="#9c2df2" stroke="#9c2df2" stroke-width="1.51"/>
  <path d="M2001,1032L2007,1111L2036,885Z" fill="#b880ed" stroke="#b880ed" stroke-width="1.51"/>
  <path d="M1998,946L2001,1032L2036,885Z" fill="#e09af5" stroke="#e09af5" stroke-width="1.51"/>
  <path d="M2007,1111L2007,1160L2036,885Z" fill="#8e64e5" stroke="#8e64e5" stroke-width="1.51"/>
  <path d="M2001,1032L1966,1110L2007,1111Z" fill="#944cee" stroke="#944cee" stroke-width="1.51"/>
  <path d="M1182,1182L1125,1195L1496,1194Z" fill="#e19bf4" stroke="#e19bf4" stroke-width="1.51"/>
  <path d="M2007,1111L1966,1110L2007,1160Z" fill="#9f11f5" stroke="#9f11f5" stroke-width="1.51"/>
  <path d="M1965,1006L1966,1110L2001,1032Z" fill="#8565e9" stroke="#8565e9" stroke-width="1.51"/>
  <path d="M1966,1110L1928,1164L2007,1160Z" fill="#a011f4" stroke="#a011f4" stroke-width="1.51"/>
  <path d="M1921,986L1965,1006L1998,946Z" fill="#d092fa" stroke="#d092fa" stroke-width="1.51"/>
  <path d="M1940,915L1921,986L1998,946Z" fill="#d798fd" stroke="#d798fd" stroke-width="1.51"/>
  <path d="M1965,1006L1874,1025L1966,1110Z" fill="#7d66ef" stroke="#7d66ef" stroke-width="1.51"/>
  <path d="M1874,1025L1868,1095L1966,1110Z" fill="#7f57f4" stroke="#7f57f4" stroke-width="1.51"/>
  <path d="M1921,986L1874,1025L1965,1006Z" fill="#ac80f9" stroke="#ac80f9" stroke-width="1.51"/>
  <path d="M1868,1095L1928,1164L1966,1110Z" fill="#901cfd" stroke="#901cfd" stroke-width="1.51"/>
  <path d="M1792,1170L1749,1195L1870,1170Z" fill="#8d60e8" stroke="#8d60e8" stroke-width="1.51"/>
  <path d="M1864,952L1921,986L1940,915Z" fill="#d09bff" stroke="#d09bff" stroke-width="1.51"/>
  <path d="M1868,1095L1870,1170L1928,1164Z" fill="#9132f8" stroke="#9132f8" stroke-width="1.51"/>
  <path d="M1864,952L1874,1025L1921,986Z" fill="#b898f9" stroke="#b898f9" stroke-width="1.51"/>
  <path d="M1864,952L1823,977L1874,1025Z" fill="#b3a6f6" stroke="#b3a6f6" stroke-width="1.51"/>
  <path d="M1868,1095L1792,1170L1870,1170Z" fill="#8a4df3" stroke="#8a4df3" stroke-width="1.51"/>
  <path d="M1794,1006L1782,1109L1868,1095Z" fill="#647de9" stroke="#647de9" stroke-width="1.51"/>
  <path d="M1782,1109L1792,1170L1868,1095Z" fill="#7d5cf3" stroke="#7d5cf3" stroke-width="1.51"/>
  <path d="M1794,1006L1868,1095L1874,1025Z" fill="#6c83ea" stroke="#6c83ea" stroke-width="1.51"/>
  <path d="M1823,977L1794,1006L1874,1025Z" fill="#98a2f0" stroke="#98a2f0" stroke-width="1.51"/>
  <path d="M1777,889L1823,977L1864,952Z" fill="#b9bbf5" stroke="#b9bbf5" stroke-width="1.51"/>
  <path d="M971,1187L893,1194L1125,1195Z" fill="#e29bf4" stroke="#e29bf4" stroke-width="1.51"/>
  <path d="M1734,1046L1782,1109L1794,1006Z" fill="#6295e6" stroke="#6295e6" stroke-width="1.51"/>
  <path d="M1737,939L1794,1006L1823,977Z" fill="#afc5f1" stroke="#afc5f1" stroke-width="1.51"/>
  <path d="M1777,889L1737,939L1823,977Z" fill="#b6caf3" stroke="#b6caf3" stroke-width="1.51"/>
  <path d="M1782,1109L1749,1195L1792,1170Z" fill="#8f6bec" stroke="#8f6bec" stroke-width="1.51"/>
  <path d="M1714,1097L1749,1195L1782,1109Z" fill="#9a74f4" stroke="#9a74f4" stroke-width="1.51"/>
  <path d="M1737,939L1734,1046L1794,1006Z" fill="#a9c2f0" stroke="#a9c2f0" stroke-width="1.51"/>
  <path d="M1734,1046L1714,1097L1782,1109Z" fill="#8990ee" stroke="#8990ee" stroke-width="1.51"/>
  <path d="M1663,957L1734,1046L1737,939Z" fill="#d6e0f9" stroke="#d6e0f9" stroke-width="1.51"/>
  <path d="M1714,1097L1641,1185L1749,1195Z" fill="#c189f6" stroke="#c189f6" stroke-width="1.51"/>
  <path d="M1663,957L1638,1002L1734,1046Z" fill="#d5e0f8" stroke="#d5e0f8" stroke-width="1.51"/>
  <path d="M1638,1002L1674,1075L1734,1046Z" fill="#aac2f0" stroke="#aac2f0" stroke-width="1.51"/>
  <path d="M1674,1075L1714,1097L1734,1046Z" fill="#9da5f1" stroke="#9da5f1" stroke-width="1.51"/>
  <path d="M1674,1075L1641,1185L1714,1097Z" fill="#c696fd" stroke="#c696fd" stroke-width="1.51"/>
  <path d="M1580,1169L1496,1194L1641,1185Z" fill="#e09af6" stroke="#e09af6" stroke-width="1.51"/>
  <path d="M1352,1155L1182,1182L1496,1194Z" fill="#de9af7" stroke="#de9af7" stroke-width="1.51"/>
  <path d="M1583,1077L1580,1169L1641,1185Z" fill="#d698fd" stroke="#d698fd" stroke-width="1.51"/>
  <path d="M1583,1077L1641,1185L1674,1075Z" fill="#cda1fe" stroke="#cda1fe" stroke-width="1.51"/>
  <path d="M1638,1002L1584,1055L1674,1075Z" fill="#b4c9f2" stroke="#b4c9f2" stroke-width="1.51"/>
  <path d="M1584,1055L1583,1077L1674,1075Z" fill="#babbf6" stroke="#babbf6" stroke-width="1.51"/>
  <path d="M1593,953L1638,1002L1663,957Z" fill="#fffeff" stroke="#fffeff" stroke-width="1.51"/>
  <path d="M1466,1179L1352,1155L1496,1194Z" fill="#de9af7" stroke="#de9af7" stroke-width="1.51"/>
  <path d="M1593,953L1584,1055L1638,1002Z" fill="#dee6f9" stroke="#dee6f9" stroke-width="1.51"/>
  <path d="M1520,1125L1580,1169L1583,1077Z" fill="#d199ff" stroke="#d199ff" stroke-width="1.51"/>
  <path d="M1536,1052L1584,1055L1593,953Z" fill="#cddaf6" stroke="#cddaf6" stroke-width="1.51"/>
  <path d="M1525,933L1536,1052L1593,953Z" fill="#f6f8fe" stroke="#f6f8fe" stroke-width="1.51"/>
  <path d="M1536,1052L1520,1125L1583,1077Z" fill="#c1b1f9" stroke="#c1b1f9" stroke-width="1.51"/>
  <path d="M1536,1052L1583,1077L1584,1055Z" fill="#b6bff4" stroke="#b6bff4" stroke-width="1.51"/>
  <path d="M1520,1125L1496,1194L1580,1169Z" fill="#db99fa" stroke="#db99fa" stroke-width="1.51"/>
  <path d="M1525,933L1439,961L1536,1052Z" fill="#f4f6fd" stroke="#f4f6fd" stroke-width="1.51"/>
  <path d="M1436,1106L1520,1125L1536,1052Z" fill="#c5acfb" stroke="#c5acfb" stroke-width="1.51"/>
  <path d="M1439,961L1424,1004L1536,1052Z" fill="#dce5f9" stroke="#dce5f9" stroke-width="1.51"/>
  <path d="M1424,1004L1436,1106L1536,1052Z" fill="#b2c2f2" stroke="#b2c2f2" stroke-width="1.51"/>
  <path d="M1466,1179L1496,1194L1520,1125Z" fill="#dc99f9" stroke="#dc99f9" stroke-width="1.51"/>
  <path d="M1436,1106L1466,1179L1520,1125Z" fill="#d598ff" stroke="#d598ff" stroke-width="1.51"/>
  <path d="M1330,1149L1182,1182L1352,1155Z" fill="#db99fa" stroke="#db99fa" stroke-width="1.51"/>
  <path d="M1436,1106L1352,1155L1466,1179Z" fill="#d798fd" stroke="#d798fd" stroke-width="1.51"/>
  <path d="M1265,1146L1182,1182L1330,1149Z" fill="#da99fb" stroke="#da99fb" stroke-width="1.51"/>
  <path d="M1361,1117L1352,1155L1436,1106Z" fill="#d298ff" stroke="#d298ff" stroke-width="1.51"/>
  <path d="M1424,1004L1362,1016L1436,1106Z" fill="#b6caf3" stroke="#b6caf3" stroke-width="1.51"/>
  <path d="M1362,1016L1361,1117L1436,1106Z" fill="#bfb4f7" stroke="#bfb4f7" stroke-width="1.51"/>
  <path d="M1364,936L1424,1004L1439,961Z" fill="#ffffff" stroke="#ffffff" stroke-width="1.51"/>
  <path d="M1364,936L1362,1016L1424,1004Z" fill="#f0f4fd" stroke="#f0f4fd" stroke-width="1.51"/>
  <path d="M1318,1080L1361,1117L1362,1016Z" fill="#bab9f6" stroke="#bab9f6" stroke-width="1.51"/>
  <path d="M1300,973L1362,1016L1364,936Z" fill="#fbfbfe" stroke="#fbfbfe" stroke-width="1.51"/>
  <path d="M1330,1149L1352,1155L1361,1117Z" fill="#d598fe" stroke="#d598fe" stroke-width="1.51"/>
  <path d="M1284,1052L1318,1080L1362,1016Z" fill="#afc5f1" stroke="#afc5f1" stroke-width="1.51"/>
  <path d="M1292,902L1300,973L1364,936Z" fill="#ffffff" stroke="#ffffff" stroke-width="1.51"/>
  <path d="M1300,973L1284,1052L1362,1016Z" fill="#d4dff8" stroke="#d4dff8" stroke-width="1.51"/>
  <path d="M1318,1080L1330,1149L1361,1117Z" fill="#ce9fff" stroke="#ce9fff" stroke-width="1.51"/>
  <path d="M1318,1080L1265,1146L1330,1149Z" fill="#d199ff" stroke="#d199ff" stroke-width="1.51"/>
  <path d="M1264,1077L1265,1146L1318,1080Z" fill="#c8a8fc" stroke="#c8a8fc" stroke-width="1.51"/>
  <path d="M1284,1052L1264,1077L1318,1080Z" fill="#babaf6" stroke="#babaf6" stroke-width="1.51"/>
  <path d="M1218,1032L1284,1052L1300,973Z" fill="#cedbf7" stroke="#cedbf7" stroke-width="1.51"/>
  <path d="M1292,902L1223,955L1300,973Z" fill="#ffffff" stroke="#ffffff" stroke-width="1.51"/>
  <path d="M1223,955L1218,1032L1300,973Z" fill="#eff3fc" stroke="#eff3fc" stroke-width="1.51"/>
  <path d="M1218,1032L1264,1077L1284,1052Z" fill="#b2c3f2" stroke="#b2c3f2" stroke-width="1.51"/>
  <path d="M1264,1077L1190,1078L1265,1146Z" fill="#c8a8fc" stroke="#c8a8fc" stroke-width="1.51"/>
  <path d="M1190,1078L1182,1182L1265,1146Z" fill="#d498ff" stroke="#d498ff" stroke-width="1.51"/>
  <path d="M1218,1032L1190,1078L1264,1077Z" fill="#b6bef4" stroke="#b6bef4" stroke-width="1.51"/>
  <path d="M1183,1015L1218,1032L1223,955Z" fill="#e1e8fa" stroke="#e1e8fa" stroke-width="1.51"/>
  <path d="M1171,940L1183,1015L1223,955Z" fill="#ffffff" stroke="#ffffff" stroke-width="1.51"/>
  <path d="M1113,1100L1182,1182L1190,1078Z" fill="#d09cff" stroke="#d09cff" stroke-width="1.51"/>
  <path d="M1183,1015L1190,1078L1218,1032Z" fill="#b7caf3" stroke="#b7caf3" stroke-width="1.51"/>
  <path d="M1113,1100L1125,1195L1182,1182Z" fill="#da99fb" stroke="#da99fb" stroke-width="1.51"/>
  <path d="M1183,1015L1093,1054L1190,1078Z" fill="#afc6f1" stroke="#afc6f1" stroke-width="1.51"/>
  <path d="M1093,1054L1113,1100L1190,1078Z" fill="#beb6f7" stroke="#beb6f7" stroke-width="1.51"/>
  <path d="M1171,940L1080,936L1183,1015Z" fill="#ffffff" stroke="#ffffff" stroke-width="1.51"/>
  <path d="M1080,936L1093,1054L1183,1015Z" fill="#dfe8fa" stroke="#dfe8fa" stroke-width="1.51"/>
  <path d="M305,1176L215,1182L463,1189Z" fill="#e09af6" stroke="#e09af6" stroke-width="1.51"/>
  <path d="M1080,936L1007,970L1093,1054Z" fill="#eff3fc" stroke="#eff3fc" stroke-width="1.51"/>
  <path d="M1039,1096L1017,1151L1113,1100Z" fill="#ce9eff" stroke="#ce9eff" stroke-width="1.51"/>
  <path d="M1113,1100L1017,1151L1125,1195Z" fill="#d899fd" stroke="#d899fd" stroke-width="1.51"/>
  <path d="M1017,1151L971,1187L1125,1195Z" fill="#de9af6" stroke="#de9af6" stroke-width="1.51"/>
  <path d="M1007,970L1016,1045L1093,1054Z" fill="#cad8f6" stroke="#cad8f6" stroke-width="1.51"/>
  <path d="M1093,1054L1039,1096L1113,1100Z" fill="#c0b2f8" stroke="#c0b2f8" stroke-width="1.51"/>
  <path d="M1016,1045L1039,1096L1093,1054Z" fill="#b8bdf5" stroke="#b8bdf5" stroke-width="1.51"/>
  <path d="M1053,901L1007,970L1080,936Z" fill="#ffffff" stroke="#ffffff" stroke-width="1.51"/>
  <path d="M953,870L1007,970L1053,901Z" fill="#ffffff" stroke="#ffffff" stroke-width="1.51"/>
  <path d="M953,870L973,970L1007,970Z" fill="#ffffff" stroke="#ffffff" stroke-width="1.51"/>
  <path d="M966,1092L1017,1151L1039,1096Z" fill="#cda0fe" stroke="#cda0fe" stroke-width="1.51"/>
  <path d="M1016,1045L966,1092L1039,1096Z" fill="#beb6f7" stroke="#beb6f7" stroke-width="1.51"/>
  <path d="M1007,970L964,1041L1016,1045Z" fill="#cfdbf7" stroke="#cfdbf7" stroke-width="1.51"/>
  <path d="M773,1158L619,1195L893,1194Z" fill="#e09af6" stroke="#e09af6" stroke-width="1.51"/>
  <path d="M973,970L964,1041L1007,970Z" fill="#e8edfb" stroke="#e8edfb" stroke-width="1.51"/>
  <path d="M964,1041L966,1092L1016,1045Z" fill="#b5c0f3" stroke="#b5c0f3" stroke-width="1.51"/>
  <path d="M966,1092L971,1187L1017,1151Z" fill="#d698fe" stroke="#d698fe" stroke-width="1.51"/>
  <path d="M869,977L892,1057L964,1041Z" fill="#c8d7f5" stroke="#c8d7f5" stroke-width="1.51"/>
  <path d="M964,1041L892,1057L966,1092Z" fill="#b7bef4" stroke="#b7bef4" stroke-width="1.51"/>
  <path d="M966,1092L871,1122L971,1187Z" fill="#d498ff" stroke="#d498ff" stroke-width="1.51"/>
  <path d="M871,1122L893,1194L971,1187Z" fill="#dc99f9" stroke="#dc99f9" stroke-width="1.51"/>
  <path d="M953,870L908,866L973,970Z" fill="#ffffff" stroke="#ffffff" stroke-width="1.51"/>
  <path d="M908,866L869,977L973,970Z" fill="#ffffff" stroke="#ffffff" stroke-width="1.51"/>
  <path d="M869,977L964,1041L973,970Z" fill="#e5ecfb" stroke="#e5ecfb" stroke-width="1.51"/>
  <path d="M892,1057L871,1122L966,1092Z" fill="#c4aefa" stroke="#c4aefa" stroke-width="1.51"/>
  <path d="M831,949L869,977L908,866Z" fill="#ffffff" stroke="#ffffff" stroke-width="1.51"/>
  <path d="M699,1158L619,1195L773,1158Z" fill="#dd99f8" stroke="#dd99f8" stroke-width="1.51"/>
  <path d="M869,977L804,1052L892,1057Z" fill="#c4d4f5" stroke="#c4d4f5" stroke-width="1.51"/>
  <path d="M820,1094L871,1122L892,1057Z" fill="#c4aefa" stroke="#c4aefa" stroke-width="1.51"/>
  <path d="M871,1122L796,1145L893,1194Z" fill="#d999fc" stroke="#d999fc" stroke-width="1.51"/>
  <path d="M796,1145L773,1158L893,1194Z" fill="#dc99f9" stroke="#dc99f9" stroke-width="1.51"/>
  <path d="M804,1052L820,1094L892,1057Z" fill="#b9bbf5" stroke="#b9bbf5" stroke-width="1.51"/>
  <path d="M74,1161L-104,1168L215,1182Z" fill="#dd99f8" stroke="#dd99f8" stroke-width="1.51"/>
  <path d="M831,949L804,1052L869,977Z" fill="#e9eefb" stroke="#e9eefb" stroke-width="1.51"/>
  <path d="M820,1094L796,1145L871,1122Z" fill="#d09cff" stroke="#d09cff" stroke-width="1.51"/>
  <path d="M735,983L804,1052L831,949Z" fill="#e7edfb" stroke="#e7edfb" stroke-width="1.51"/>
  <path d="M735,983L769,1054L804,1052Z" fill="#c3d3f5" stroke="#c3d3f5" stroke-width="1.51"/>
  <path d="M793,907L735,983L831,949Z" fill="#ffffff" stroke="#ffffff" stroke-width="1.51"/>
  <path d="M261,1177L215,1182L305,1176Z" fill="#df9af6" stroke="#df9af6" stroke-width="1.51"/>
  <path d="M746,1081L796,1145L820,1094Z" fill="#caa4fd" stroke="#caa4fd" stroke-width="1.51"/>
  <path d="M804,1052L769,1054L820,1094Z" fill="#b9bcf5" stroke="#b9bcf5" stroke-width="1.51"/>
  <path d="M769,1054L746,1081L820,1094Z" fill="#bdb6f7" stroke="#bdb6f7" stroke-width="1.51"/>
  <path d="M564,1183L463,1189L619,1195Z" fill="#e19af4" stroke="#e19af4" stroke-width="1.51"/>
  <path d="M746,1081L773,1158L796,1145Z" fill="#d398ff" stroke="#d398ff" stroke-width="1.51"/>
  <path d="M703,915L735,983L793,907Z" fill="#ffffff" stroke="#ffffff" stroke-width="1.51"/>
  <path d="M746,1081L699,1158L773,1158Z" fill="#d498ff" stroke="#d498ff" stroke-width="1.51"/>
  <path d="M735,983L663,1012L746,1081Z" fill="#c7d6f5" stroke="#c7d6f5" stroke-width="1.51"/>
  <path d="M735,983L746,1081L769,1054Z" fill="#b9ccf3" stroke="#b9ccf3" stroke-width="1.51"/>
  <path d="M663,1012L685,1086L746,1081Z" fill="#b5c0f3" stroke="#b5c0f3" stroke-width="1.51"/>
  <path d="M703,915L688,949L735,983Z" fill="#ffffff" stroke="#ffffff" stroke-width="1.51"/>
  <path d="M685,1086L699,1158L746,1081Z" fill="#cba3fe" stroke="#cba3fe" stroke-width="1.51"/>
  <path d="M688,949L663,1012L735,983Z" fill="#f4f6fd" stroke="#f4f6fd" stroke-width="1.51"/>
  <path d="M685,1086L582,1106L699,1158Z" fill="#ce9eff" stroke="#ce9eff" stroke-width="1.51"/>
  <path d="M582,1106L619,1195L699,1158Z" fill="#d999fc" stroke="#d999fc" stroke-width="1.51"/>
  <path d="M663,1012L597,1028L685,1086Z" fill="#b6caf3" stroke="#b6caf3" stroke-width="1.51"/>
  <path d="M587,944L663,1012L688,949Z" fill="#ffffff" stroke="#ffffff" stroke-width="1.51"/>
  <path d="M597,1028L582,1106L685,1086Z" fill="#bcb8f6" stroke="#bcb8f6" stroke-width="1.51"/>
  <path d="M587,944L597,1028L663,1012Z" fill="#e7edfb" stroke="#e7edfb" stroke-width="1.51"/>
  <path d="M587,944L556,959L597,1028Z" fill="#f9fafe" stroke="#f9fafe" stroke-width="1.51"/>
  <path d="M582,1106L564,1183L619,1195Z" fill="#db99fa" stroke="#db99fa" stroke-width="1.51"/>
  <path d="M524,1089L582,1106L597,1028Z" fill="#bcb8f6" stroke="#bcb8f6" stroke-width="1.51"/>
  <path d="M515,1055L524,1089L597,1028Z" fill="#b4c1f3" stroke="#b4c1f3" stroke-width="1.51"/>
  <path d="M556,959L515,1055L597,1028Z" fill="#d3def8" stroke="#d3def8" stroke-width="1.51"/>
  <path d="M524,1089L564,1183L582,1106Z" fill="#d298ff" stroke="#d298ff" stroke-width="1.51"/>
  <path d="M461,1031L515,1055L556,959Z" fill="#d2def7" stroke="#d2def7" stroke-width="1.51"/>
  <path d="M524,1089L463,1189L564,1183Z" fill="#d999fc" stroke="#d999fc" stroke-width="1.51"/>
  <path d="M457,1104L463,1189L524,1089Z" fill="#d297ff" stroke="#d297ff" stroke-width="1.51"/>
  <path d="M448,966L461,1031L556,959Z" fill="#f0f4fd" stroke="#f0f4fd" stroke-width="1.51"/>
  <path d="M486,874L448,966L556,959Z" fill="#ffffff" stroke="#ffffff" stroke-width="1.51"/>
  <path d="M515,1055L457,1104L524,1089Z" fill="#c0b3f8" stroke="#c0b3f8" stroke-width="1.51"/>
  <path d="M461,1031L457,1104L515,1055Z" fill="#b7bef4" stroke="#b7bef4" stroke-width="1.51"/>
  <path d="M389,886L448,966L486,874Z" fill="#ffffff" stroke="#ffffff" stroke-width="1.51"/>
  <path d="M389,886L424,967L448,966Z" fill="#ffffff" stroke="#ffffff" stroke-width="1.51"/>
  <path d="M405,1153L305,1176L463,1189Z" fill="#dd9af7" stroke="#dd9af7" stroke-width="1.51"/>
  <path d="M457,1104L405,1153L463,1189Z" fill="#d899fd" stroke="#d899fd" stroke-width="1.51"/>
  <path d="M-15,1156L-104,1168L74,1161Z" fill="#db99fa" stroke="#db99fa" stroke-width="1.51"/>
  <path d="M448,966L424,967L461,1031Z" fill="#eef2fc" stroke="#eef2fc" stroke-width="1.51"/>
  <path d="M415,1094L457,1104L461,1031Z" fill="#bdb6f7" stroke="#bdb6f7" stroke-width="1.51"/>
  <path d="M393,1042L415,1094L461,1031Z" fill="#b3c2f3" stroke="#b3c2f3" stroke-width="1.51"/>
  <path d="M415,1094L405,1153L457,1104Z" fill="#cf9eff" stroke="#cf9eff" stroke-width="1.51"/>
  <path d="M424,967L393,1042L461,1031Z" fill="#d4dff8" stroke="#d4dff8" stroke-width="1.51"/>
  <path d="M389,886L311,971L424,967Z" fill="#ffffff" stroke="#ffffff" stroke-width="1.51"/>
  <path d="M311,971L341,1008L424,967Z" fill="#f4f6fd" stroke="#f4f6fd" stroke-width="1.51"/>
  <path d="M341,1008L393,1042L424,967Z" fill="#dce5f9" stroke="#dce5f9" stroke-width="1.51"/>
  <path d="M324,1098L405,1153L415,1094Z" fill="#ce9fff" stroke="#ce9fff" stroke-width="1.51"/>
  <path d="M393,1042L324,1098L415,1094Z" fill="#beb5f7" stroke="#beb5f7" stroke-width="1.51"/>
  <path d="M324,1098L305,1176L405,1153Z" fill="#d698fe" stroke="#d698fe" stroke-width="1.51"/>
  <path d="M341,868L311,971L389,886Z" fill="#ffffff" stroke="#ffffff" stroke-width="1.51"/>
  <path d="M341,1008L324,1098L393,1042Z" fill="#afc5f1" stroke="#afc5f1" stroke-width="1.51"/>
  <path d="M283,916L311,971L341,868Z" fill="#ffffff" stroke="#ffffff" stroke-width="1.51"/>
  <path d="M273,1011L324,1098L341,1008Z" fill="#b9cdf3" stroke="#b9cdf3" stroke-width="1.51"/>
  <path d="M273,1011L254,1095L324,1098Z" fill="#b9bbf5" stroke="#b9bbf5" stroke-width="1.51"/>
  <path d="M311,971L273,1011L341,1008Z" fill="#e5ebfb" stroke="#e5ebfb" stroke-width="1.51"/>
  <path d="M254,1095L305,1176L324,1098Z" fill="#d19aff" stroke="#d19aff" stroke-width="1.51"/>
  <path d="M254,1095L261,1177L305,1176Z" fill="#d898fc" stroke="#d898fc" stroke-width="1.51"/>
  <path d="M283,916L246,932L311,971Z" fill="#ffffff" stroke="#ffffff" stroke-width="1.51"/>
  <path d="M246,932L273,1011L311,971Z" fill="#fefeff" stroke="#fefeff" stroke-width="1.51"/>
  <path d="M201,806L246,932L281,810Z" fill="#ffffff" stroke="#ffffff" stroke-width="1.51"/>
  <path d="M201,806L166,878L246,932Z" fill="#ffffff" stroke="#ffffff" stroke-width="1.51"/>
  <path d="M246,932L198,961L273,1011Z" fill="#ffffff" stroke="#ffffff" stroke-width="1.51"/>
  <path d="M203,1017L254,1095L273,1011Z" fill="#b7cbf3" stroke="#b7cbf3" stroke-width="1.51"/>
  <path d="M254,1095L215,1182L261,1177Z" fill="#d899fc" stroke="#d899fc" stroke-width="1.51"/>
  <path d="M198,961L203,1017L273,1011Z" fill="#e5ebfb" stroke="#e5ebfb" stroke-width="1.51"/>
  <path d="M203,1017L175,1072L254,1095Z" fill="#b6bff4" stroke="#b6bff4" stroke-width="1.51"/>
  <path d="M175,1072L215,1182L254,1095Z" fill="#ce9eff" stroke="#ce9eff" stroke-width="1.51"/>
  <path d="M118,1149L74,1161L215,1182Z" fill="#db99fa" stroke="#db99fa" stroke-width="1.51"/>
  <path d="M175,1072L118,1149L215,1182Z" fill="#d498ff" stroke="#d498ff" stroke-width="1.51"/>
  <path d="M198,961L110,1002L203,1017Z" fill="#e8eefb" stroke="#e8eefb" stroke-width="1.51"/>
  <path d="M110,1002L175,1072L203,1017Z" fill="#c2d2f4" stroke="#c2d2f4" stroke-width="1.51"/>
  <path d="M113,955L110,1002L198,961Z" fill="#fdfdff" stroke="#fdfdff" stroke-width="1.51"/>
  <path d="M109,1082L118,1149L175,1072Z" fill="#c8a8fc" stroke="#c8a8fc" stroke-width="1.51"/>
  <path d="M110,1002L109,1082L175,1072Z" fill="#b1c4f2" stroke="#b1c4f2" stroke-width="1.51"/>
  <path d="M42,1074L109,1082L110,1002Z" fill="#b1c3f2" stroke="#b1c3f2" stroke-width="1.51"/>
  <path d="M109,1082L74,1161L118,1149Z" fill="#d398ff" stroke="#d398ff" stroke-width="1.51"/>
  <path d="M42,1074L74,1161L109,1082Z" fill="#caa5fd" stroke="#caa5fd" stroke-width="1.51"/>
  <path d="M26,1018L42,1074L110,1002Z" fill="#c1d2f4" stroke="#c1d2f4" stroke-width="1.51"/>
  <path d="M53,936L110,1002L113,955Z" fill="#ffffff" stroke="#ffffff" stroke-width="1.51"/>
  <path d="M53,936L26,1018L110,1002Z" fill="#f0f4fd" stroke="#f0f4fd" stroke-width="1.51"/>
  <path d="M42,1074L-2,1105L74,1161Z" fill="#cda0fe" stroke="#cda0fe" stroke-width="1.51"/>
  <path d="M-2,1105L-15,1156L74,1161Z" fill="#d598fe" stroke="#d598fe" stroke-width="1.51"/>
  <path d="M-34,972L26,1018L53,936Z" fill="#fafbfe" stroke="#fafbfe" stroke-width="1.51"/>
  <path d="M-2,870L-34,972L53,936Z" fill="#ffffff" stroke="#ffffff" stroke-width="1.51"/>
  <path d="M26,1018L-15,1035L42,1074Z" fill="#b6caf3" stroke="#b6caf3" stroke-width="1.51"/>
  <path d="M-15,1035L-2,1105L42,1074Z" fill="#bbb9f6" stroke="#bbb9f6" stroke-width="1.51"/>
  <path d="M-76,917L-34,972L-2,870Z" fill="#ffffff" stroke="#ffffff" stroke-width="1.51"/>
  <path d="M-34,972L-15,1035L26,1018Z" fill="#d9e3f9" stroke="#d9e3f9" stroke-width="1.51"/>
  <path d="M-15,1035L-70,1100L-2,1105Z" fill="#bfb4f8" stroke="#bfb4f8" stroke-width="1.51"/>
  <path d="M-70,1100L-15,1156L-2,1105Z" fill="#d09cff" stroke="#d09cff" stroke-width="1.51"/>
  <path d="M-34,972L-99,1015L-15,1035Z" fill="#dae4f9" stroke="#dae4f9" stroke-width="1.51"/>
  <path d="M-99,1015L-70,1100L-15,1035Z" fill="#b0c5f2" stroke="#b0c5f2" stroke-width="1.51"/>
  <path d="M-70,1100L-104,1168L-15,1156Z" fill="#d698fe" stroke="#d698fe" stroke-width="1.51"/>
  <path d="M-76,917L-105,978L-34,972Z" fill="#ffffff" stroke="#ffffff" stroke-width="1.51"/>
  <path d="M-105,978L-99,1015L-34,972Z" fill="#edf1fc" stroke="#edf1fc" stroke-width="1.51"/>
  <path d="M-99,1015L-104,1168L-70,1100Z" fill="#c5acfb" stroke="#c5acfb" stroke-width="1.51"/>
  <path d="M-108,797L-105,978L-76,917Z" fill="#ffffff" stroke="#ffffff" stroke-width="1.51"/>
  <path d="M-105,978L-104,1168L-99,1015Z" fill="#b2c3f2" stroke="#b2c3f2" stroke-width="1.51"/>
  <path d="M-105,978L-118,663L-104,1168Z" fill="#ffffff" stroke="#ffffff" stroke-width="1.51"/>
  <path d="M-108,797L-118,663L-105,978Z" fill="#ffffff" stroke="#ffffff" stroke-width="1.51"/>
</svg>