<svg xmlns="http://www.w3.org/2000/svg" width="600" height="90"><path d="M158,175L-20,195L340,195Z" fill="#8c6c9e" stroke="#8c6c9e" stroke-width="1.51"/><path d="M57,-110L304,-90L453,-108Z" fill="#c0cae2" stroke="#c0cae2" stroke-width="1.51"/><path d="M478,186L340,195L548,187Z" fill="#783483" stroke="#783483" stroke-width="1.51"/><path d="M548,187L340,195L638,188Z" fill="#76287e" stroke="#76287e" stroke-width="1.51"/><path d="M453,-108L546,-84L649,-103Z" fill="#bc94c4" stroke="#bc94c4" stroke-width="1.51"/><path d="M673,32L625,60L677,118Z" fill="#7f4a90" stroke="#7f4a90" stroke-width="1.51"/><path d="M649,-103L631,-17L687,-12Z" fill="#9d77a8" stroke="#9d77a8" stroke-width="1.51"/><path d="M673,32L677,118L687,-12Z" fill="#7b5590" stroke="#7b5590" stroke-width="1.51"/><path d="M687,-12L677,118L693,171Z" fill="#773a84" stroke="#773a84" stroke-width="1.51"/><path d="M649,-103L687,-12L709,-94Z" fill="#a07ba5" stroke="#a07ba5" stroke-width="1.51"/><path d="M687,-12L693,171L709,-94Z" fill="#7c5e92" stroke="#7c5e92" stroke-width="1.51"/><path d="M625,60L638,113L677,118Z" fill="#803c8c" stroke="#803c8c" stroke-width="1.51"/><path d="M638,113L638,188L677,118Z" fill="#7b227f" stroke="#7b227f" stroke-width="1.51"/><path d="M677,118L638,188L693,171Z" fill="#751272" stroke="#751272" stroke-width="1.51"/><path d="M631,-17L673,32L687,-12Z" fill="#8b6a9f" stroke="#8b6a9f" stroke-width="1.51"/><path d="M631,-17L625,60L673,32Z" fill="#8a639e" stroke="#8a639e" stroke-width="1.51"/><path d="M453,-108L519,-83L546,-84Z" fill="#ba9aca" stroke="#ba9aca" stroke-width="1.51"/><path d="M548,187L638,188L638,113Z" fill="#82177f" stroke="#82177f" stroke-width="1.51"/><path d="M546,-84L631,-17L649,-103Z" fill="#b284b7" stroke="#b284b7" stroke-width="1.51"/><path d="M563,58L625,60L631,-17Z" fill="#8f63a5" stroke="#8f63a5" stroke-width="1.51"/><path d="M546,-84L540,-25L631,-17Z" fill="#a883b8" stroke="#a883b8" stroke-width="1.51"/><path d="M625,60L564,90L638,113Z" fill="#894597" stroke="#894597" stroke-width="1.51"/><path d="M564,90L548,187L638,113Z" fill="#863190" stroke="#863190" stroke-width="1.51"/><path d="M540,-25L563,58L631,-17Z" fill="#9675b0" stroke="#9675b0" stroke-width="1.51"/><path d="M563,58L564,90L625,60Z" fill="#8b549f" stroke="#8b549f" stroke-width="1.51"/><path d="M519,-83L540,-25L546,-84Z" fill="#b18fc2" stroke="#b18fc2" stroke-width="1.51"/><path d="M473,106L478,186L548,187Z" fill="#863390" stroke="#863390" stroke-width="1.51"/><path d="M540,-25L500,-1L563,58Z" fill="#9579b6" stroke="#9579b6" stroke-width="1.51"/><path d="M500,-1L496,30L563,58Z" fill="#9173b4" stroke="#9173b4" stroke-width="1.51"/><path d="M473,106L548,187L564,90Z" fill="#883e9a" stroke="#883e9a" stroke-width="1.51"/><path d="M563,58L496,30L564,90Z" fill="#8c61a9" stroke="#8c61a9" stroke-width="1.51"/><path d="M496,30L473,106L564,90Z" fill="#8b5da9" stroke="#8b5da9" stroke-width="1.51"/><path d="M519,-83L500,-1L540,-25Z" fill="#a789c0" stroke="#a789c0" stroke-width="1.51"/><path d="M473,106L449,151L478,186Z" fill="#884198" stroke="#884198" stroke-width="1.51"/><path d="M432,-25L500,-1L519,-83Z" fill="#a690c4" stroke="#a690c4" stroke-width="1.51"/><path d="M453,-108L432,-25L519,-83Z" fill="#b59dcb" stroke="#b59dcb" stroke-width="1.51"/><path d="M304,-90L356,-77L453,-108Z" fill="#bbb4d7" stroke="#bbb4d7" stroke-width="1.51"/><path d="M452,122L449,151L473,106Z" fill="#8a4ca2" stroke="#8a4ca2" stroke-width="1.51"/><path d="M439,51L473,106L496,30Z" fill="#8c6cb1" stroke="#8c6cb1" stroke-width="1.51"/><path d="M432,-25L439,51L496,30Z" fill="#9484bd" stroke="#9484bd" stroke-width="1.51"/><path d="M432,-25L496,30L500,-1Z" fill="#9888bf" stroke="#9888bf" stroke-width="1.51"/><path d="M439,51L452,122L473,106Z" fill="#8c5eaa" stroke="#8c5eaa" stroke-width="1.51"/><path d="M449,151L340,195L478,186Z" fill="#813f8e" stroke="#813f8e" stroke-width="1.51"/><path d="M439,51L369,62L452,122Z" fill="#8c6db1" stroke="#8c6db1" stroke-width="1.51"/><path d="M369,62L346,119L452,122Z" fill="#8c67ae" stroke="#8c67ae" stroke-width="1.51"/><path d="M367,-45L432,-25L453,-108Z" fill="#b0a3ce" stroke="#b0a3ce" stroke-width="1.51"/><path d="M356,-77L367,-45L453,-108Z" fill="#b6add4" stroke="#b6add4" stroke-width="1.51"/><path d="M346,119L449,151L452,122Z" fill="#8a53a4" stroke="#8a53a4" stroke-width="1.51"/><path d="M432,-25L369,62L439,51Z" fill="#9187bf" stroke="#9187bf" stroke-width="1.51"/><path d="M346,119L340,195L449,151Z" fill="#8a509d" stroke="#8a509d" stroke-width="1.51"/><path d="M367,-45L369,62L432,-25Z" fill="#9999c8" stroke="#9999c8" stroke-width="1.51"/><path d="M178,-64L213,-61L304,-90Z" fill="#bacbe3" stroke="#bacbe3" stroke-width="1.51"/><path d="M57,-110L178,-64L304,-90Z" fill="#c5d7e9" stroke="#c5d7e9" stroke-width="1.51"/><path d="M258,159L158,175L340,195Z" fill="#89629e" stroke="#89629e" stroke-width="1.51"/><path d="M292,-5L281,67L369,62Z" fill="#8d94c5" stroke="#8d94c5" stroke-width="1.51"/><path d="M282,90L346,119L369,62Z" fill="#8d78b7" stroke="#8d78b7" stroke-width="1.51"/><path d="M281,67L282,90L369,62Z" fill="#8d86be" stroke="#8d86be" stroke-width="1.51"/><path d="M367,-45L292,-5L369,62Z" fill="#96a0cc" stroke="#96a0cc" stroke-width="1.51"/><path d="M287,150L340,195L346,119Z" fill="#8c5ca3" stroke="#8c5ca3" stroke-width="1.51"/><path d="M356,-77L304,-90L367,-45Z" fill="#b4b5d8" stroke="#b4b5d8" stroke-width="1.51"/><path d="M304,-90L292,-5L367,-45Z" fill="#aab3d6" stroke="#aab3d6" stroke-width="1.51"/><path d="M282,90L287,150L346,119Z" fill="#8d6fb2" stroke="#8d6fb2" stroke-width="1.51"/><path d="M287,150L258,159L340,195Z" fill="#8c5da0" stroke="#8c5da0" stroke-width="1.51"/><path d="M213,-61L226,-14L292,-5Z" fill="#a7bcda" stroke="#a7bcda" stroke-width="1.51"/><path d="M220,24L281,67L292,-5Z" fill="#93a4ce" stroke="#93a4ce" stroke-width="1.51"/><path d="M213,-61L292,-5L304,-90Z" fill="#afbfdc" stroke="#afbfdc" stroke-width="1.51"/><path d="M218,124L258,159L282,90Z" fill="#9177b6" stroke="#9177b6" stroke-width="1.51"/><path d="M282,90L258,159L287,150Z" fill="#8f6fb1" stroke="#8f6fb1" stroke-width="1.51"/><path d="M226,-14L220,24L292,-5Z" fill="#9bb3d5" stroke="#9bb3d5" stroke-width="1.51"/><path d="M281,67L218,124L282,90Z" fill="#9184bd" stroke="#9184bd" stroke-width="1.51"/><path d="M220,24L218,124L281,67Z" fill="#9293c4" stroke="#9293c4" stroke-width="1.51"/><path d="M186,106L218,124L220,24Z" fill="#9591c4" stroke="#9591c4" stroke-width="1.51"/><path d="M218,124L158,175L258,159Z" fill="#9572ae" stroke="#9572ae" stroke-width="1.51"/><path d="M114,158L-20,195L158,175Z" fill="#9f77ab" stroke="#9f77ab" stroke-width="1.51"/><path d="M170,27L186,106L220,24Z" fill="#96a5ce" stroke="#96a5ce" stroke-width="1.51"/><path d="M187,-24L220,24L226,-14Z" fill="#a0bbda" stroke="#a0bbda" stroke-width="1.51"/><path d="M213,-61L187,-24L226,-14Z" fill="#acc4de" stroke="#acc4de" stroke-width="1.51"/><path d="M57,-110L95,-65L178,-64Z" fill="#cdddec" stroke="#cdddec" stroke-width="1.51"/><path d="M186,106L158,175L218,124Z" fill="#987eb8" stroke="#987eb8" stroke-width="1.51"/><path d="M187,-24L170,27L220,24Z" fill="#9ebad9" stroke="#9ebad9" stroke-width="1.51"/><path d="M178,-64L187,-24L213,-61Z" fill="#b5cbe2" stroke="#b5cbe2" stroke-width="1.51"/><path d="M63,151L-20,195L114,158Z" fill="#aa7eb2" stroke="#aa7eb2" stroke-width="1.51"/><path d="M113,128L158,175L186,106Z" fill="#9d80ba" stroke="#9d80ba" stroke-width="1.51"/><path d="M170,27L95,47L186,106Z" fill="#9da6ce" stroke="#9da6ce" stroke-width="1.51"/><path d="M95,47L113,128L186,106Z" fill="#a196c7" stroke="#a196c7" stroke-width="1.51"/><path d="M178,-64L106,-5L187,-24Z" fill="#b3cae1" stroke="#b3cae1" stroke-width="1.51"/><path d="M106,-5L170,27L187,-24Z" fill="#a7c2dd" stroke="#a7c2dd" stroke-width="1.51"/><path d="M113,128L114,158L158,175Z" fill="#a07bb4" stroke="#a07bb4" stroke-width="1.51"/><path d="M95,-65L106,-5L178,-64Z" fill="#bdd1e6" stroke="#bdd1e6" stroke-width="1.51"/><path d="M106,-5L95,47L170,27Z" fill="#a5bada" stroke="#a5bada" stroke-width="1.51"/><path d="M95,-65L57,-24L106,-5Z" fill="#bed2e6" stroke="#bed2e6" stroke-width="1.51"/><path d="M95,47L16,87L113,128Z" fill="#a99fcc" stroke="#a99fcc" stroke-width="1.51"/><path d="M16,87L63,151L113,128Z" fill="#ab90c4" stroke="#ab90c4" stroke-width="1.51"/><path d="M113,128L63,151L114,158Z" fill="#a582b9" stroke="#a582b9" stroke-width="1.51"/><path d="M40,20L95,47L106,-5Z" fill="#adc1dd" stroke="#adc1dd" stroke-width="1.51"/><path d="M57,-24L40,20L106,-5Z" fill="#b5cce3" stroke="#b5cce3" stroke-width="1.51"/><path d="M-74,-90L-35,-81L57,-110Z" fill="#e5eff6" stroke="#e5eff6" stroke-width="1.51"/><path d="M40,20L16,87L95,47Z" fill="#acb5d7" stroke="#acb5d7" stroke-width="1.51"/><path d="M57,-110L57,-24L95,-65Z" fill="#cedeed" stroke="#cedeed" stroke-width="1.51"/><path d="M-35,-81L-3,-18L57,-110Z" fill="#dae7f1" stroke="#dae7f1" stroke-width="1.51"/><path d="M57,-110L-3,-18L57,-24Z" fill="#cdddec" stroke="#cdddec" stroke-width="1.51"/><path d="M16,87L-50,132L63,151Z" fill="#b295c7" stroke="#b295c7" stroke-width="1.51"/><path d="M-50,132L-20,195L63,151Z" fill="#b387b9" stroke="#b387b9" stroke-width="1.51"/><path d="M-11,39L16,87L40,20Z" fill="#b1bada" stroke="#b1bada" stroke-width="1.51"/><path d="M-3,-18L40,20L57,-24Z" fill="#bdd2e5" stroke="#bdd2e5" stroke-width="1.51"/><path d="M-3,-18L-11,39L40,20Z" fill="#b9cce3" stroke="#b9cce3" stroke-width="1.51"/><path d="M-11,39L-67,118L16,87Z" fill="#b7add3" stroke="#b7add3" stroke-width="1.51"/><path d="M-67,118L-50,132L16,87Z" fill="#b99ecc" stroke="#b99ecc" stroke-width="1.51"/><path d="M-75,26L-67,118L-11,39Z" fill="#babada" stroke="#babada" stroke-width="1.51"/><path d="M-68,-9L-75,26L-11,39Z" fill="#c0cfe5" stroke="#c0cfe5" stroke-width="1.51"/><path d="M-68,-9L-11,39L-3,-18Z" fill="#c0d5e8" stroke="#c0d5e8" stroke-width="1.51"/><path d="M-35,-81L-68,-9L-3,-18Z" fill="#d2e1ee" stroke="#d2e1ee" stroke-width="1.51"/><path d="M-50,132L-98,160L-20,195Z" fill="#b98aba" stroke="#b98aba" stroke-width="1.51"/><path d="M-74,-90L-68,-9L-35,-81Z" fill="#deeaf3" stroke="#deeaf3" stroke-width="1.51"/><path d="M-67,118L-98,160L-50,132Z" fill="#bc95c6" stroke="#bc95c6" stroke-width="1.51"/><path d="M-74,-90L-75,26L-68,-9Z" fill="#d1e0ed" stroke="#d1e0ed" stroke-width="1.51"/><path d="M-75,26L-98,160L-67,118Z" fill="#bda7d1" stroke="#bda7d1" stroke-width="1.51"/><path d="M-98,160L-75,26L-74,-90Z" fill="#c0cbe3" stroke="#c0cbe3" stroke-width="1.51"/></svg>